<svg width="18" height="12" viewBox="0 0 18 12" fill="none" xmlns="http://www.w3.org/2000/svg">
<path d="M2.6125 6.58333L6.95833 10.9292C7.075 11.0458 7.13333 11.1819 7.13333 11.3375C7.15278 11.4931 7.09444 11.6389 6.95833 11.775C6.84167 11.8917 6.70556 11.9597 6.55 11.9792C6.39445 11.9792 6.25833 11.9111 6.14167 11.775L1.00833 6.67083C0.833334 6.47639 0.745834 6.25278 0.745834 6C0.745834 5.74722 0.833334 5.52361 1.00833 5.32917L6.14167 0.225C6.25833 0.108333 6.39445 0.049999 6.55 0.049999C6.70556 0.049999 6.84167 0.108333 6.95833 0.225C7.09444 0.36111 7.1625 0.506943 7.1625 0.6625C7.1625 0.79861 7.09444 0.934721 6.95833 1.07083L2.6125 5.41667H17.05C17.225 5.41667 17.3611 5.475 17.4583 5.59167C17.575 5.68889 17.6333 5.825 17.6333 6C17.6333 6.175 17.575 6.32083 17.4583 6.4375C17.3611 6.53472 17.225 6.58333 17.05 6.58333H2.6125Z" fill="black"/>
</svg>
