<svg width="30" height="30" viewBox="0 0 30 30" fill="none" xmlns="http://www.w3.org/2000/svg">
<path d="M15 15.8167L8.875 21.9417C8.77778 22.0583 8.64167 22.1264 8.46667 22.1458C8.31111 22.1458 8.175 22.0778 8.05833 21.9417C7.92222 21.825 7.85417 21.6889 7.85417 21.5333C7.85417 21.3778 7.92222 21.2417 8.05833 21.125L14.1833 15L8.05833 8.875C7.94167 8.77778 7.87361 8.65139 7.85417 8.49583C7.85417 8.32083 7.92222 8.175 8.05833 8.05833C8.175 7.92222 8.31111 7.85417 8.46667 7.85417C8.62222 7.85417 8.75833 7.92222 8.875 8.05833L15 14.1833L21.125 8.05833C21.2222 7.94167 21.3486 7.88333 21.5042 7.88333C21.6792 7.86389 21.825 7.92222 21.9417 8.05833C22.0778 8.175 22.1458 8.31111 22.1458 8.46667C22.1458 8.62222 22.0778 8.75833 21.9417 8.875L15.8167 15L21.9417 21.125C22.0583 21.2222 22.1167 21.3583 22.1167 21.5333C22.1361 21.6889 22.0778 21.825 21.9417 21.9417C21.825 22.0778 21.6889 22.1458 21.5333 22.1458C21.3778 22.1458 21.2417 22.0778 21.125 21.9417L15 15.8167Z" fill="#252527"/>
</svg>
