<svg width="24" height="24" viewBox="0 0 24 24" fill="none" xmlns="http://www.w3.org/2000/svg">
<path d="M11.4167 22.4417V21.3333C8.98611 21.1 6.97361 20.1958 5.37917 18.6208C3.80417 17.0264 2.9 15.0139 2.66667 12.5833H1.55833C1.38333 12.5833 1.2375 12.525 1.12083 12.4083C1.02361 12.2917 0.975 12.1556 0.975 12C0.975 11.825 1.02361 11.6889 1.12083 11.5917C1.2375 11.475 1.38333 11.4167 1.55833 11.4167H2.66667C2.9 8.98611 3.80417 6.98333 5.37917 5.40833C6.97361 3.81389 8.98611 2.9 11.4167 2.66667V1.55833C11.4167 1.38333 11.475 1.24722 11.5917 1.15C11.7083 1.03333 11.8444 0.974998 12 0.974998C12.175 0.974998 12.3111 1.03333 12.4083 1.15C12.525 1.24722 12.5833 1.38333 12.5833 1.55833V2.66667C15.0139 2.9 17.0167 3.81389 18.5917 5.40833C20.1861 6.98333 21.1 8.98611 21.3333 11.4167H22.4417C22.6167 11.4167 22.7528 11.475 22.85 11.5917C22.9667 11.7083 23.025 11.8444 23.025 12C23.025 12.175 22.9667 12.3208 22.85 12.4375C22.7528 12.5347 22.6167 12.5833 22.4417 12.5833H21.3333C21.1 15.0139 20.1861 17.0264 18.5917 18.6208C17.0167 20.1958 15.0139 21.1 12.5833 21.3333V22.4417C12.5833 22.6167 12.525 22.7625 12.4083 22.8792C12.2917 22.9764 12.1556 23.025 12 23.025C11.825 23.025 11.6792 22.9764 11.5625 22.8792C11.4653 22.7625 11.4167 22.6167 11.4167 22.4417ZM12 20.1667C14.2556 20.1667 16.1806 19.3694 17.775 17.775C19.3694 16.1806 20.1667 14.2556 20.1667 12C20.1667 9.74444 19.3694 7.81944 17.775 6.225C16.1806 4.63056 14.2556 3.83333 12 3.83333C9.74444 3.83333 7.81945 4.63056 6.225 6.225C4.63056 7.81944 3.83333 9.74444 3.83333 12C3.83333 14.2556 4.63056 16.1806 6.225 17.775C7.81945 19.3694 9.74444 20.1667 12 20.1667ZM12 15.5C11.0278 15.5 10.2014 15.1597 9.52083 14.4792C8.84028 13.7986 8.5 12.9722 8.5 12C8.5 11.0278 8.84028 10.2014 9.52083 9.52083C10.2014 8.84028 11.0278 8.5 12 8.5C12.9722 8.5 13.7986 8.84028 14.4792 9.52083C15.1597 10.2014 15.5 11.0278 15.5 12C15.5 12.9722 15.1597 13.7986 14.4792 14.4792C13.7986 15.1597 12.9722 15.5 12 15.5ZM12 14.3333C12.6417 14.3333 13.1861 14.1097 13.6333 13.6625C14.1 13.1958 14.3333 12.6417 14.3333 12C14.3333 11.3583 14.1 10.8139 13.6333 10.3667C13.1861 9.9 12.6417 9.66667 12 9.66667C11.3583 9.66667 10.8042 9.9 10.3375 10.3667C9.89028 10.8139 9.66667 11.3583 9.66667 12C9.66667 12.6417 9.89028 13.1958 10.3375 13.6625C10.8042 14.1097 11.3583 14.3333 12 14.3333Z" fill="#252527"/>
</svg>
