<svg width="16" height="22" viewBox="0 0 16 22" fill="none" xmlns="http://www.w3.org/2000/svg">
<path d="M4.87917 11.35C4.72361 11.35 4.5875 11.2917 4.47083 11.175C4.35417 11.0583 4.29583 10.9222 4.29583 10.7667V2.71667L1.0875 5.925C0.970834 6.04167 0.834723 6.1 0.679167 6.1C0.543056 6.1 0.406945 6.04167 0.270834 5.925C0.154167 5.78889 0.0958338 5.65278 0.0958338 5.51667C0.0958338 5.36111 0.154167 5.21528 0.270834 5.07917L4.20833 1.17083C4.30556 1.05417 4.40278 0.976388 4.5 0.937498C4.61667 0.89861 4.73333 0.879166 4.85 0.879166C4.98611 0.879166 5.1125 0.89861 5.22917 0.937498C5.34583 0.976388 5.45278 1.05417 5.55 1.17083L9.4875 5.10833C9.60417 5.225 9.6625 5.36111 9.6625 5.51667C9.68195 5.65278 9.62361 5.78889 9.4875 5.925C9.35139 6.04167 9.20556 6.1 9.05 6.1C8.91389 6.1 8.7875 6.04167 8.67083 5.925L5.4625 2.71667V10.7667C5.4625 10.9222 5.40417 11.0583 5.2875 11.175C5.19028 11.2917 5.05417 11.35 4.87917 11.35ZM11.15 21.0917C11.0139 21.0917 10.8875 21.0722 10.7708 21.0333C10.6542 20.9944 10.5472 20.9264 10.45 20.8292L6.5125 16.8625C6.39583 16.7458 6.32778 16.6194 6.30833 16.4833C6.30833 16.3278 6.37639 16.1819 6.5125 16.0458C6.64861 15.9292 6.78472 15.8708 6.92083 15.8708C7.07639 15.8708 7.2125 15.9389 7.32917 16.075L10.5375 19.2542V11.2042C10.5375 11.0486 10.5861 10.9222 10.6833 10.825C10.8 10.7083 10.9458 10.65 11.1208 10.65C11.2764 10.65 11.4125 10.7083 11.5292 10.825C11.6458 10.9222 11.7042 11.0583 11.7042 11.2333V19.2542L14.9125 16.0458C15.0292 15.9292 15.1556 15.8708 15.2917 15.8708C15.4472 15.8708 15.5931 15.9292 15.7292 16.0458C15.8458 16.1819 15.9042 16.3278 15.9042 16.4833C15.9042 16.6194 15.8458 16.7556 15.7292 16.8917L11.7917 20.8292C11.6944 20.9264 11.5875 20.9944 11.4708 21.0333C11.3736 21.0722 11.2667 21.0917 11.15 21.0917Z" fill="#323335"/>
</svg>
